<?xml version="1.0" encoding="utf-8"?>
<!-- Svg Vector Icons : http://www.onlinewebfonts.com/icon -->
<!DOCTYPE svg PUBLIC "-//W3C//DTD SVG 1.1//EN" "http://www.w3.org/Graphics/SVG/1.1/DTD/svg11.dtd">
<svg xmlns:xlink="http://www.w3.org/1999/xlink" version="1.1" xmlns="http://www.w3.org/2000/svg" x="0px" y="0px" viewBox="0 0 256 256" enable-background="new 0 0 256 256" xml:space="preserve">
<metadata> Svg Vector Icons : http://www.onlinewebfonts.com/icon </metadata>
<g><g><g><path fill="#111111" d="M115.5,10.3c-46,5.2-85,36.5-99.5,80c-2.3,6.6-3.9,13.6-5.1,21.2c-1.2,7.9-1.2,25,0,33.1c3.9,25.2,14.6,47.4,31.5,64.9c10.1,10.6,19.9,17.7,33.1,24.3c34.8,17.4,75.6,16.6,109.6-2.2c10.3-5.7,17.8-11.5,26.8-20.5c18-18.1,29.2-40.5,33.1-66.2c1.3-8.3,1.3-25.7,0-33.8c-3.3-21.1-11.8-40.8-24.9-57.1c-4.6-5.7-14.7-15.5-20.5-19.9c-16-12-32.8-19.2-52.9-22.8C139.9,10,122.6,9.5,115.5,10.3z M144,26c37.4,6.4,67.7,31.3,80.8,66.4c4.4,11.8,6.1,21.5,6.1,35.6c0,11.5-0.6,16.2-3,25.6c-1.4,5.3-5.8,17.5-6.3,17.5c-0.3,0-179.3-99.1-179.8-99.5c-0.7-0.7,10.3-14.1,15.4-18.8c16.2-15,35.7-24.2,57.9-27.2C121.7,24.6,137.5,24.8,144,26z M124.5,134.6c62.4,34.6,89.6,50,89.4,50.4c-0.7,1.8-8.6,11.4-13,15.9c-36.3,36.6-93.6,40.4-135.3,9.1c-5.3-4-14-12.5-18.3-17.8c-8.9-11.2-15.4-24.1-19-37.8c-2.7-10-3.2-14.6-3.2-26.4c0-11.5,0.6-16.2,3-25.6c1.5-5.7,5.8-17.5,6.4-17.5C34.7,84.9,75.2,107.3,124.5,134.6z"/><path fill="#111111" d="M108.3,66c-4.7,1.7-8.3,5.4-9.6,10c-0.5,1.6-0.8,4.7-0.8,8.4c0,3.5-0.2,6-0.5,6.1c-0.3,0.1,5.5,3.5,12.8,7.5l13.3,7.4h4.2c8.4,0,16.4,3.2,22.5,9c2,1.9,4.5,4.9,5.5,6.6l1.9,3.2l22.6,12.6l22.7,12.6l0.2-23.2c0.1-22.2,0.1-23.4-0.9-26c-1.3-3.5-3.8-6.3-7.1-8.1l-2.7-1.5l-17.1-0.1l-17.2-0.1v-6.2c0-5-0.2-6.8-1-8.9c-1.3-3.5-3.8-6.3-7.1-8.1l-2.7-1.5l-18.5-0.1C114,65.4,109.8,65.5,108.3,66z"/><path fill="#111111" d="M52.9,142.8c0.1,35.9,0.1,36.5,1.2,38.8c1.6,3.3,3.9,5.7,7.1,7.3l2.9,1.4H128h63.9l2.9-1.4c1.6-0.8,2.8-1.7,2.7-2c-0.1-0.4-41.4-23.7-45.3-25.5c-1-0.5-1.4-0.3-3.4,1.5c-9.3,8.2-23.7,9.9-35.4,4.1c-8.6-4.2-15.3-13-17.3-22.5c-0.7-3.4-0.8-10.9-0.1-13.4c0.1-0.6-16.9-10.4-39.1-22.5l-4.2-2.3L52.9,142.8z"/><path fill="#111111" d="M110.7,140.6c0.5,3.2,3.1,8.1,5.4,10.2c3.5,3.1,7,4.5,11.7,4.5c3.8,0,8.8-1.3,8.8-2.2c0-0.4-25.3-14.6-25.9-14.6C110.5,138.5,110.5,139.4,110.7,140.6z"/></g></g></g>
</svg>
